<?xml version="1.0" standalone="no"?>
<!DOCTYPE svg PUBLIC "-//W3C//DTD SVG 20010904//EN"
 "http://www.w3.org/TR/2001/REC-SVG-20010904/DTD/svg10.dtd">
<svg version="1.0" xmlns="http://www.w3.org/2000/svg"
 width="380.000000pt" height="379.000000pt" viewBox="0 0 380.000000 379.000000"
 preserveAspectRatio="xMidYMid meet">

<g transform="translate(0.000000,379.000000) scale(0.100000,-0.100000)"
fill="#000000" stroke="none">
<path d="M1365 3301 c-7 -12 12 -24 25 -16 11 7 4 25 -10 25 -5 0 -11 -4 -15
-9z"/>
<path d="M1522 3258 c-28 -28 -1 -75 37 -63 25 8 34 31 21 56 -12 21 -40 25
-58 7z"/>
<path d="M1357 3156 c-8 -20 20 -43 35 -28 14 14 3 42 -16 42 -7 0 -16 -6 -19
-14z"/>
<path d="M1246 3081 c5 -5 101 -62 214 -126 113 -65 258 -149 322 -186 l117
-68 119 69 c377 216 528 303 537 311 5 5 -272 9 -655 9 -383 0 -660 -4 -654
-9z m814 -71 c0 -24 -25 -33 -40 -14 -10 11 -10 17 0 28 15 19 40 10 40 -14z
m-200 -39 c0 -24 -25 -34 -40 -16 -15 18 -5 35 21 35 12 0 19 -7 19 -19z m138
-95 c5 -23 -16 -46 -42 -46 -46 0 -62 48 -24 74 19 13 25 14 43 2 11 -7 21
-21 23 -30z"/>
<path d="M2570 2958 c-102 -59 -281 -163 -397 -230 l-213 -122 0 -243 0 -242
88 -51 c48 -28 227 -131 397 -230 l310 -179 3 355 c1 196 1 512 0 702 l-3 347
-185 -107z"/>
<path d="M1060 2359 c0 -385 3 -698 8 -696 17 10 616 355 700 404 l92 54 0
242 0 242 -393 228 c-217 125 -397 227 -400 227 -4 0 -7 -315 -7 -701z"/>
<path d="M435 1386 c-120 -45 -130 -178 -17 -235 21 -10 51 -21 67 -25 74 -18
102 -74 50 -98 -30 -13 -75 3 -75 27 0 12 -13 15 -60 15 -67 0 -73 -9 -43 -60
27 -46 81 -70 155 -70 76 0 122 24 151 80 40 78 -2 143 -120 186 -74 27 -98
49 -87 78 13 35 94 27 94 -9 0 -12 14 -15 60 -15 68 0 75 11 40 67 -36 60
-137 87 -215 59z"/>
<path d="M1268 1389 c-47 -14 -113 -71 -138 -120 -42 -80 -19 -209 46 -271 63
-59 178 -76 260 -39 127 58 169 232 84 349 -49 69 -164 105 -252 81z m121
-103 c37 -20 51 -39 62 -83 11 -50 -5 -108 -38 -139 -20 -19 -37 -24 -75 -24
-43 0 -54 4 -84 34 -30 30 -34 40 -34 85 0 65 22 108 63 126 41 18 71 18 106
1z"/>
<path d="M1785 1391 c-165 -41 -232 -243 -124 -375 61 -72 184 -98 275 -57 41
19 98 79 107 112 5 17 -1 19 -53 19 -50 0 -63 -4 -84 -25 -30 -30 -98 -34
-135 -9 -64 45 -66 161 -5 215 41 36 117 29 153 -14 10 -12 30 -17 72 -17 l58
0 -10 29 c-17 49 -89 107 -148 120 -57 12 -63 12 -106 2z"/>
<path d="M2664 1390 c-81 -19 -124 -86 -104 -162 13 -47 44 -71 126 -98 35
-12 71 -28 79 -37 27 -27 15 -58 -27 -68 -21 -5 -33 -1 -53 19 -22 22 -35 26
-81 26 -53 0 -55 -1 -49 -22 20 -69 82 -108 168 -108 101 0 167 50 167 128 0
57 -26 91 -88 118 -102 44 -127 59 -130 77 -9 47 54 63 86 22 17 -21 28 -25
71 -25 48 0 51 1 51 26 0 35 -55 89 -105 103 -45 12 -65 12 -111 1z"/>
<path d="M720 1345 l0 -45 60 0 60 0 0 -180 0 -180 55 0 55 0 0 180 0 180 60
0 60 0 0 45 0 45 -175 0 -175 0 0 -45z"/>
<path d="M2120 1165 l0 -225 55 0 54 0 3 95 3 95 73 -95 73 -95 66 0 c51 0 63
3 56 13 -6 6 -44 56 -86 109 -43 53 -77 102 -77 108 0 6 33 52 73 103 101 127
98 117 25 117 l-63 -1 -70 -95 -70 -95 -3 95 -3 96 -54 0 -55 0 0 -225z"/>
<path d="M2960 1165 l0 -225 55 0 55 0 0 225 0 225 -55 0 -55 0 0 -225z"/>
<path d="M3150 1165 l0 -225 55 0 55 0 0 79 0 78 63 5 c35 3 78 13 95 22 97
50 96 198 -2 246 -35 16 -62 20 -154 20 l-112 0 0 -225z m218 123 c7 -7 12
-27 12 -45 0 -39 -21 -53 -79 -53 l-41 0 0 55 0 55 48 0 c26 0 53 -5 60 -12z"/>
<path d="M1140 635 c0 -87 3 -105 15 -105 10 0 15 10 15 33 l1 32 29 -32 c16
-18 37 -33 47 -33 13 0 8 10 -19 38 l-37 37 31 34 c22 25 27 36 18 39 -8 3
-26 -9 -42 -27 l-28 -31 0 60 c0 47 -3 60 -15 60 -12 0 -15 -18 -15 -105z"/>
<path d="M693 693 c-8 -16 -9 -29 -4 -33 6 -3 11 -32 13 -65 3 -57 4 -60 31
-63 31 -4 37 13 7 21 -17 4 -20 14 -20 56 0 44 3 51 20 51 11 0 20 5 20 10 0
6 -9 10 -20 10 -13 0 -20 7 -20 20 0 28 -13 25 -27 -7z"/>
<path d="M3223 693 c-8 -16 -9 -29 -4 -33 6 -3 11 -32 13 -65 3 -57 4 -60 31
-63 31 -4 37 13 7 21 -17 4 -20 14 -20 56 0 44 3 51 20 51 11 0 20 5 20 10 0
6 -9 10 -20 10 -13 0 -20 7 -20 20 0 28 -13 25 -27 -7z"/>
<path d="M563 680 c-16 -6 -23 -18 -23 -35 0 -21 8 -29 46 -45 48 -21 54 -43
14 -48 -14 -3 -29 3 -37 14 -16 22 -31 9 -17 -14 15 -23 83 -23 97 -1 16 25 1
47 -43 65 -22 9 -39 22 -37 28 5 14 57 21 57 7 0 -6 7 -11 15 -11 22 0 18 17
-7 34 -25 18 -33 19 -65 6z"/>
<path d="M833 680 c-80 -32 -57 -150 30 -150 33 0 77 40 77 69 0 33 -21 68
-47 80 -28 13 -30 13 -60 1z m65 -32 c17 -17 15 -64 -4 -82 -33 -34 -84 -8
-84 43 0 34 17 51 50 51 14 0 31 -5 38 -12z"/>
<path d="M1003 678 c-44 -22 -52 -88 -15 -130 22 -25 77 -23 104 4 26 26 7 39
-21 14 -38 -34 -81 -13 -81 39 0 17 5 36 12 43 17 17 67 15 74 -3 8 -19 24
-20 24 -1 0 31 -60 52 -97 34z"/>
<path d="M1411 681 c-7 -5 -22 -6 -32 -4 -17 5 -19 -1 -19 -71 0 -60 3 -76 15
-76 10 0 15 16 17 63 l3 62 35 0 35 0 3 -62 c2 -47 7 -63 17 -63 11 0 15 13
15 53 0 65 9 80 46 75 28 -3 29 -5 32 -65 2 -47 7 -63 17 -63 11 0 15 14 15
56 0 30 -4 64 -10 74 -13 25 -57 34 -84 17 -19 -13 -26 -13 -47 -1 -28 16 -39
17 -58 5z"/>
<path d="M1683 678 c-44 -22 -52 -88 -15 -130 17 -21 72 -24 90 -6 9 9 12 9
12 0 0 -7 7 -12 15 -12 12 0 15 15 15 75 l0 74 -27 -1 c-16 0 -37 2 -48 5 -11
4 -30 1 -42 -5z m75 -30 c20 -20 15 -76 -7 -88 -43 -22 -81 1 -81 49 0 34 17
51 50 51 14 0 31 -5 38 -12z"/>
<path d="M1891 681 c-7 -5 -22 -6 -32 -4 -17 5 -19 -1 -19 -71 0 -60 3 -76 15
-76 10 0 15 16 17 63 3 62 3 62 36 65 27 3 34 -1 42 -23 6 -14 10 -44 10 -66
0 -21 5 -39 10 -39 14 0 12 113 -2 133 -16 20 -58 30 -77 18z"/>
<path d="M2053 678 c-44 -22 -52 -88 -15 -130 17 -21 72 -24 90 -6 9 9 12 9
12 0 0 -7 7 -12 15 -12 12 0 15 15 15 75 l0 74 -27 -1 c-16 0 -37 2 -48 5 -11
4 -30 1 -42 -5z m75 -30 c20 -20 15 -76 -7 -88 -43 -22 -81 1 -81 49 0 34 17
51 50 51 14 0 31 -5 38 -12z"/>
<path d="M2243 678 c-44 -22 -52 -88 -15 -130 17 -21 72 -24 90 -6 9 9 12 6
12 -13 0 -14 -5 -30 -12 -37 -17 -17 -67 -15 -74 3 -6 16 -34 21 -34 7 0 -20
43 -46 77 -46 58 0 73 28 73 135 l0 88 -27 -1 c-16 0 -37 2 -48 5 -11 4 -30 1
-42 -5z m75 -30 c20 -20 15 -76 -7 -88 -43 -22 -81 1 -81 49 0 34 17 51 50 51
14 0 31 -5 38 -12z"/>
<path d="M2433 678 c-68 -34 -43 -148 34 -148 34 0 89 40 65 48 -7 2 -19 -4
-28 -12 -28 -29 -84 -15 -84 21 0 9 17 13 60 13 56 0 60 1 60 23 0 45 -63 77
-107 55z m77 -38 c10 -19 8 -20 -40 -20 -51 0 -60 6 -38 28 19 19 66 15 78 -8z"/>
<path d="M2625 681 c-11 -5 -26 -6 -32 -4 -10 4 -13 -14 -13 -71 0 -44 4 -76
10 -76 6 0 10 24 10 53 0 58 12 77 47 77 29 0 43 -27 43 -84 0 -25 5 -46 10
-46 6 0 10 24 10 53 0 57 12 77 45 77 33 0 45 -20 45 -77 0 -30 4 -53 10 -53
7 0 10 25 8 67 -3 60 -6 69 -29 82 -22 12 -29 12 -56 -1 -17 -9 -35 -12 -40
-8 -14 14 -47 19 -68 11z"/>
<path d="M2910 683 c-52 -19 -69 -94 -30 -133 26 -26 81 -26 105 0 23 25 12
39 -13 17 -23 -21 -56 -22 -76 -1 -28 27 -18 34 49 34 36 0 65 2 65 4 0 23
-26 66 -46 75 -27 12 -31 12 -54 4z m58 -35 c22 -22 13 -28 -38 -28 -48 0 -50
1 -40 20 12 23 59 27 78 8z"/>
<path d="M3091 681 c-7 -5 -22 -6 -32 -4 -17 5 -19 -1 -19 -71 0 -60 3 -76 15
-76 10 0 15 16 17 63 l3 62 35 0 35 0 3 -62 c2 -47 7 -63 17 -63 11 0 15 13
15 48 0 66 -8 88 -36 101 -30 13 -35 13 -53 2z"/>
</g>
</svg>
